<svg xmlns="http://www.w3.org/2000/svg" version="1.1" width="1512px" height="250px" style="shape-rendering:geometricPrecision;text-rendering:geometricPrecision;image-rendering:optimizeQuality;fill-rule:evenodd;clip-rule:evenodd" xmlns:xlink="http://www.w3.org/1999/xlink"><g><path style="opacity:0.99" fill="#2662fe" d="M -0.5,-0.5 C 1.16667,-0.5 2.83333,-0.5 4.5,-0.5C 227.267,54.092 450.267,108.259 673.5,162C 725.308,173.279 777.308,174.279 829.5,165C 948.625,136.969 1067.63,108.469 1186.5,79.5C 1196.46,77.9266 1206.12,75.5933 1215.5,72.5C 1218.5,72.7062 1221.16,72.0395 1223.5,70.5C 1224.57,69.5655 1225.9,69.2322 1227.5,69.5C 1241.17,67.0815 1254.51,63.7482 1267.5,59.5C 1268.57,58.5655 1269.9,58.2322 1271.5,58.5C 1276.19,58.5751 1280.53,57.5751 1284.5,55.5C 1288.84,55.4159 1292.84,54.4159 1296.5,52.5C 1298.91,51.2318 1301.57,50.5651 1304.5,50.5C 1358.22,38.0897 1411.88,25.4231 1465.5,12.5C 1466.79,12.2627 1467.79,12.596 1468.5,13.5C 1217.66,83.1279 966.658,152.295 715.5,221C 670.563,229.68 626.563,226.347 583.5,211C 388.814,141.164 194.148,71.3305 -0.5,1.5C -0.5,0.833333 -0.5,0.166667 -0.5,-0.5 Z"></path></g><g><path style="opacity:1" fill="#fefeff" d="M -0.5,1.5 C 194.148,71.3305 388.814,141.164 583.5,211C 626.563,226.347 670.563,229.68 715.5,221C 966.658,152.295 1217.66,83.1279 1468.5,13.5C 1482.39,9.52635 1496.39,5.85968 1510.5,2.5C 1510.83,2.5 1511.17,2.5 1511.5,2.5C 1511.5,84.8333 1511.5,167.167 1511.5,249.5C 1007.5,249.5 503.5,249.5 -0.5,249.5C -0.5,166.833 -0.5,84.1667 -0.5,1.5 Z"></path></g></svg>